<svg width="275" height="78" viewBox="0 0 275 78" fill="none" xmlns="http://www.w3.org/2000/svg">
<rect x="0.5" y="0.5" width="57" height="77" stroke="white"/>
<path d="M19.4585 27.1484C19.4585 26.7002 19.3882 26.3047 19.2476 25.9619C19.1157 25.6104 18.8784 25.2939 18.5356 25.0127C18.2017 24.7314 17.7358 24.4634 17.1382 24.2085C16.5493 23.9536 15.8022 23.6943 14.897 23.4307C13.9478 23.1494 13.0908 22.8374 12.3262 22.4946C11.5615 22.1431 10.9067 21.7432 10.3618 21.2949C9.81689 20.8467 9.39941 20.3325 9.10938 19.7524C8.81934 19.1724 8.67432 18.5088 8.67432 17.7617C8.67432 17.0146 8.82812 16.3247 9.13574 15.6919C9.44336 15.0591 9.88281 14.5098 10.4541 14.0439C11.0342 13.5693 11.7241 13.2002 12.5239 12.9365C13.3237 12.6729 14.2158 12.541 15.2002 12.541C16.6416 12.541 17.8633 12.8179 18.8652 13.3716C19.876 13.9165 20.645 14.6328 21.1724 15.5205C21.6997 16.3994 21.9634 17.3398 21.9634 18.3418H19.4321C19.4321 17.6211 19.2783 16.9839 18.9707 16.4302C18.6631 15.8677 18.1973 15.4282 17.5732 15.1118C16.9492 14.7866 16.1582 14.624 15.2002 14.624C14.2949 14.624 13.5479 14.7603 12.959 15.0327C12.3701 15.3052 11.9307 15.6743 11.6406 16.1401C11.3594 16.606 11.2188 17.1377 11.2188 17.7354C11.2188 18.1396 11.3022 18.5088 11.4692 18.8428C11.645 19.168 11.9131 19.4712 12.2734 19.7524C12.6426 20.0337 13.1084 20.293 13.6709 20.5303C14.2422 20.7676 14.9233 20.9961 15.7144 21.2158C16.8042 21.5234 17.7446 21.8662 18.5356 22.2441C19.3267 22.6221 19.9771 23.0483 20.4868 23.5229C21.0054 23.9888 21.3877 24.5205 21.6338 25.1182C21.8887 25.707 22.0161 26.375 22.0161 27.1221C22.0161 27.9043 21.8579 28.6118 21.5415 29.2446C21.2251 29.8774 20.7725 30.418 20.1836 30.8662C19.5947 31.3145 18.8872 31.6616 18.061 31.9077C17.2437 32.145 16.3296 32.2637 15.3188 32.2637C14.4312 32.2637 13.5566 32.1406 12.6953 31.8945C11.8428 31.6484 11.0649 31.2793 10.3618 30.7871C9.66748 30.2949 9.10938 29.6885 8.6875 28.9678C8.27441 28.2383 8.06787 27.3945 8.06787 26.4365H10.5991C10.5991 27.0957 10.7266 27.6626 10.9814 28.1372C11.2363 28.603 11.5835 28.9897 12.0229 29.2974C12.4712 29.605 12.9766 29.8335 13.5391 29.9829C14.1104 30.1235 14.7036 30.1938 15.3188 30.1938C16.2065 30.1938 16.958 30.0708 17.5732 29.8247C18.1885 29.5786 18.6543 29.2271 18.9707 28.77C19.2959 28.313 19.4585 27.7725 19.4585 27.1484ZM37.7969 21.0576V23.1274H27.4082V21.0576H37.7969ZM27.8037 12.8047V32H25.2593V12.8047H27.8037ZM40.0117 12.8047V32H37.4805V12.8047H40.0117ZM24.0068 46.7959V48.0088C24.0068 49.4502 23.8267 50.7422 23.4663 51.8848C23.106 53.0273 22.5874 53.9985 21.9106 54.7983C21.2339 55.5981 20.4209 56.209 19.4717 56.6309C18.5312 57.0527 17.4766 57.2637 16.3076 57.2637C15.1738 57.2637 14.1323 57.0527 13.1831 56.6309C12.2427 56.209 11.4253 55.5981 10.731 54.7983C10.0454 53.9985 9.51367 53.0273 9.13574 51.8848C8.75781 50.7422 8.56885 49.4502 8.56885 48.0088V46.7959C8.56885 45.3545 8.75342 44.0669 9.12256 42.9331C9.50049 41.7905 10.0322 40.8193 10.7178 40.0195C11.4033 39.2109 12.2163 38.5957 13.1567 38.1738C14.106 37.752 15.1475 37.541 16.2812 37.541C17.4502 37.541 18.5049 37.752 19.4453 38.1738C20.3945 38.5957 21.2075 39.2109 21.8843 40.0195C22.5698 40.8193 23.0928 41.7905 23.4531 42.9331C23.8223 44.0669 24.0068 45.3545 24.0068 46.7959ZM21.4888 48.0088V46.7695C21.4888 45.627 21.3701 44.6162 21.1328 43.7373C20.9043 42.8584 20.5659 42.1201 20.1177 41.5225C19.6694 40.9248 19.1201 40.4722 18.4697 40.1646C17.8281 39.8569 17.0986 39.7031 16.2812 39.7031C15.4902 39.7031 14.7739 39.8569 14.1323 40.1646C13.4995 40.4722 12.9546 40.9248 12.4976 41.5225C12.0493 42.1201 11.7021 42.8584 11.4561 43.7373C11.21 44.6162 11.0869 45.627 11.0869 46.7695V48.0088C11.0869 49.1602 11.21 50.1797 11.4561 51.0674C11.7021 51.9463 12.0537 52.689 12.5107 53.2954C12.9766 53.8931 13.5259 54.3457 14.1587 54.6533C14.8003 54.9609 15.5166 55.1147 16.3076 55.1147C17.1338 55.1147 17.8677 54.9609 18.5093 54.6533C19.1509 54.3457 19.6914 53.8931 20.1309 53.2954C20.5791 52.689 20.9175 51.9463 21.146 51.0674C21.3745 50.1797 21.4888 49.1602 21.4888 48.0088ZM34.8965 49.4722H29.7681V47.4023H34.8965C35.8896 47.4023 36.6938 47.2441 37.3091 46.9277C37.9243 46.6113 38.3726 46.1719 38.6538 45.6094C38.9438 45.0469 39.0889 44.4053 39.0889 43.6846C39.0889 43.0254 38.9438 42.4058 38.6538 41.8257C38.3726 41.2456 37.9243 40.7798 37.3091 40.4282C36.6938 40.0679 35.8896 39.8877 34.8965 39.8877H30.3613V57H27.8169V37.8047H34.8965C36.3467 37.8047 37.5728 38.0552 38.5747 38.5562C39.5767 39.0571 40.3369 39.7515 40.8555 40.6392C41.374 41.5181 41.6333 42.5244 41.6333 43.6582C41.6333 44.8887 41.374 45.939 40.8555 46.8091C40.3369 47.6792 39.5767 48.3428 38.5747 48.7998C37.5728 49.248 36.3467 49.4722 34.8965 49.4722Z" fill="white"/>
<path d="M8.06055 66.7344V71H7.49512V66.7344H8.06055ZM9.84766 68.6533V69.1162H7.9375V68.6533H9.84766ZM10.1377 66.7344V67.1973H7.9375V66.7344H10.1377ZM11.8926 67.1123L10.4805 71H9.90332L11.5293 66.7344H11.9014L11.8926 67.1123ZM13.0762 71L11.6611 67.1123L11.6523 66.7344H12.0244L13.6562 71H13.0762ZM13.0029 69.4209V69.8838H10.6064V69.4209H13.0029ZM16.501 69.9219C16.501 69.8223 16.4854 69.7344 16.4541 69.6582C16.4248 69.5801 16.3721 69.5098 16.2959 69.4473C16.2217 69.3848 16.1182 69.3252 15.9854 69.2686C15.8545 69.2119 15.6885 69.1543 15.4873 69.0957C15.2764 69.0332 15.0859 68.9639 14.916 68.8877C14.7461 68.8096 14.6006 68.7207 14.4795 68.6211C14.3584 68.5215 14.2656 68.4072 14.2012 68.2783C14.1367 68.1494 14.1045 68.002 14.1045 67.8359C14.1045 67.6699 14.1387 67.5166 14.207 67.376C14.2754 67.2354 14.373 67.1133 14.5 67.0098C14.6289 66.9043 14.7822 66.8223 14.96 66.7637C15.1377 66.7051 15.3359 66.6758 15.5547 66.6758C15.875 66.6758 16.1465 66.7373 16.3691 66.8604C16.5938 66.9814 16.7646 67.1406 16.8818 67.3379C16.999 67.5332 17.0576 67.7422 17.0576 67.9648H16.4951C16.4951 67.8047 16.4609 67.6631 16.3926 67.54C16.3242 67.415 16.2207 67.3174 16.082 67.2471C15.9434 67.1748 15.7676 67.1387 15.5547 67.1387C15.3535 67.1387 15.1875 67.1689 15.0566 67.2295C14.9258 67.29 14.8281 67.3721 14.7637 67.4756C14.7012 67.5791 14.6699 67.6973 14.6699 67.8301C14.6699 67.9199 14.6885 68.002 14.7256 68.0762C14.7646 68.1484 14.8242 68.2158 14.9043 68.2783C14.9863 68.3408 15.0898 68.3984 15.2148 68.4512C15.3418 68.5039 15.4932 68.5547 15.6689 68.6035C15.9111 68.6719 16.1201 68.748 16.2959 68.832C16.4717 68.916 16.6162 69.0107 16.7295 69.1162C16.8447 69.2197 16.9297 69.3379 16.9844 69.4707C17.041 69.6016 17.0693 69.75 17.0693 69.916C17.0693 70.0898 17.0342 70.2471 16.9639 70.3877C16.8936 70.5283 16.793 70.6484 16.6621 70.748C16.5312 70.8477 16.374 70.9248 16.1904 70.9795C16.0088 71.0322 15.8057 71.0586 15.5811 71.0586C15.3838 71.0586 15.1895 71.0312 14.998 70.9766C14.8086 70.9219 14.6357 70.8398 14.4795 70.7305C14.3252 70.6211 14.2012 70.4863 14.1074 70.3262C14.0156 70.1641 13.9697 69.9766 13.9697 69.7637H14.5322C14.5322 69.9102 14.5605 70.0361 14.6172 70.1416C14.6738 70.2451 14.751 70.3311 14.8486 70.3994C14.9482 70.4678 15.0605 70.5186 15.1855 70.5518C15.3125 70.583 15.4443 70.5986 15.5811 70.5986C15.7783 70.5986 15.9453 70.5713 16.082 70.5166C16.2188 70.4619 16.3223 70.3838 16.3926 70.2822C16.4648 70.1807 16.501 70.0605 16.501 69.9219ZM20.5762 68.5684V69.0283H18.2676V68.5684H20.5762ZM18.3555 66.7344V71H17.79V66.7344H18.3555ZM21.0684 66.7344V71H20.5059V66.7344H21.0684ZM22.6797 66.7344V71H22.1143V66.7344H22.6797ZM26.9922 68.7324V69.002C26.9922 69.3223 26.9521 69.6094 26.8721 69.8633C26.792 70.1172 26.6768 70.333 26.5264 70.5107C26.376 70.6885 26.1953 70.8242 25.9844 70.918C25.7754 71.0117 25.541 71.0586 25.2812 71.0586C25.0293 71.0586 24.7979 71.0117 24.5869 70.918C24.3779 70.8242 24.1963 70.6885 24.042 70.5107C23.8896 70.333 23.7715 70.1172 23.6875 69.8633C23.6035 69.6094 23.5615 69.3223 23.5615 69.002V68.7324C23.5615 68.4121 23.6025 68.126 23.6846 67.874C23.7686 67.6201 23.8867 67.4043 24.0391 67.2266C24.1914 67.0469 24.3721 66.9102 24.5811 66.8164C24.792 66.7227 25.0234 66.6758 25.2754 66.6758C25.5352 66.6758 25.7695 66.7227 25.9785 66.8164C26.1895 66.9102 26.3701 67.0469 26.5205 67.2266C26.6729 67.4043 26.7891 67.6201 26.8691 67.874C26.9512 68.126 26.9922 68.4121 26.9922 68.7324ZM26.4326 69.002V68.7266C26.4326 68.4727 26.4062 68.248 26.3535 68.0527C26.3027 67.8574 26.2275 67.6934 26.1279 67.5605C26.0283 67.4277 25.9062 67.3271 25.7617 67.2588C25.6191 67.1904 25.457 67.1562 25.2754 67.1562C25.0996 67.1562 24.9404 67.1904 24.7979 67.2588C24.6572 67.3271 24.5361 67.4277 24.4346 67.5605C24.335 67.6934 24.2578 67.8574 24.2031 68.0527C24.1484 68.248 24.1211 68.4727 24.1211 68.7266V69.002C24.1211 69.2578 24.1484 69.4844 24.2031 69.6816C24.2578 69.877 24.3359 70.042 24.4375 70.1768C24.541 70.3096 24.6631 70.4102 24.8037 70.4785C24.9463 70.5469 25.1055 70.5811 25.2812 70.5811C25.4648 70.5811 25.6279 70.5469 25.7705 70.4785C25.9131 70.4102 26.0332 70.3096 26.1309 70.1768C26.2305 70.042 26.3057 69.877 26.3564 69.6816C26.4072 69.4844 26.4326 69.2578 26.4326 69.002ZM31.1201 66.7344V71H30.5518L28.4043 67.71V71H27.8389V66.7344H28.4043L30.5605 70.0332V66.7344H31.1201ZM35.8838 69.9219C35.8838 69.8223 35.8682 69.7344 35.8369 69.6582C35.8076 69.5801 35.7549 69.5098 35.6787 69.4473C35.6045 69.3848 35.501 69.3252 35.3682 69.2686C35.2373 69.2119 35.0713 69.1543 34.8701 69.0957C34.6592 69.0332 34.4688 68.9639 34.2988 68.8877C34.1289 68.8096 33.9834 68.7207 33.8623 68.6211C33.7412 68.5215 33.6484 68.4072 33.584 68.2783C33.5195 68.1494 33.4873 68.002 33.4873 67.8359C33.4873 67.6699 33.5215 67.5166 33.5898 67.376C33.6582 67.2354 33.7559 67.1133 33.8828 67.0098C34.0117 66.9043 34.165 66.8223 34.3428 66.7637C34.5205 66.7051 34.7188 66.6758 34.9375 66.6758C35.2578 66.6758 35.5293 66.7373 35.752 66.8604C35.9766 66.9814 36.1475 67.1406 36.2646 67.3379C36.3818 67.5332 36.4404 67.7422 36.4404 67.9648H35.8779C35.8779 67.8047 35.8438 67.6631 35.7754 67.54C35.707 67.415 35.6035 67.3174 35.4648 67.2471C35.3262 67.1748 35.1504 67.1387 34.9375 67.1387C34.7363 67.1387 34.5703 67.1689 34.4395 67.2295C34.3086 67.29 34.2109 67.3721 34.1465 67.4756C34.084 67.5791 34.0527 67.6973 34.0527 67.8301C34.0527 67.9199 34.0713 68.002 34.1084 68.0762C34.1475 68.1484 34.207 68.2158 34.2871 68.2783C34.3691 68.3408 34.4727 68.3984 34.5977 68.4512C34.7246 68.5039 34.876 68.5547 35.0518 68.6035C35.2939 68.6719 35.5029 68.748 35.6787 68.832C35.8545 68.916 35.999 69.0107 36.1123 69.1162C36.2275 69.2197 36.3125 69.3379 36.3672 69.4707C36.4238 69.6016 36.4521 69.75 36.4521 69.916C36.4521 70.0898 36.417 70.2471 36.3467 70.3877C36.2764 70.5283 36.1758 70.6484 36.0449 70.748C35.9141 70.8477 35.7568 70.9248 35.5732 70.9795C35.3916 71.0322 35.1885 71.0586 34.9639 71.0586C34.7666 71.0586 34.5723 71.0312 34.3809 70.9766C34.1914 70.9219 34.0186 70.8398 33.8623 70.7305C33.708 70.6211 33.584 70.4863 33.4902 70.3262C33.3984 70.1641 33.3525 69.9766 33.3525 69.7637H33.915C33.915 69.9102 33.9434 70.0361 34 70.1416C34.0566 70.2451 34.1338 70.3311 34.2314 70.3994C34.3311 70.4678 34.4434 70.5186 34.5684 70.5518C34.6953 70.583 34.8271 70.5986 34.9639 70.5986C35.1611 70.5986 35.3281 70.5713 35.4648 70.5166C35.6016 70.4619 35.7051 70.3838 35.7754 70.2822C35.8477 70.1807 35.8838 70.0605 35.8838 69.9219ZM38.749 66.7344V71H38.1924V66.7344H38.749ZM40.1201 66.7344V67.1973H36.8242V66.7344H40.1201ZM43.9551 68.7324V69.002C43.9551 69.3223 43.915 69.6094 43.835 69.8633C43.7549 70.1172 43.6396 70.333 43.4893 70.5107C43.3389 70.6885 43.1582 70.8242 42.9473 70.918C42.7383 71.0117 42.5039 71.0586 42.2441 71.0586C41.9922 71.0586 41.7607 71.0117 41.5498 70.918C41.3408 70.8242 41.1592 70.6885 41.0049 70.5107C40.8525 70.333 40.7344 70.1172 40.6504 69.8633C40.5664 69.6094 40.5244 69.3223 40.5244 69.002V68.7324C40.5244 68.4121 40.5654 68.126 40.6475 67.874C40.7314 67.6201 40.8496 67.4043 41.002 67.2266C41.1543 67.0469 41.335 66.9102 41.5439 66.8164C41.7549 66.7227 41.9863 66.6758 42.2383 66.6758C42.498 66.6758 42.7324 66.7227 42.9414 66.8164C43.1523 66.9102 43.333 67.0469 43.4834 67.2266C43.6357 67.4043 43.752 67.6201 43.832 67.874C43.9141 68.126 43.9551 68.4121 43.9551 68.7324ZM43.3955 69.002V68.7266C43.3955 68.4727 43.3691 68.248 43.3164 68.0527C43.2656 67.8574 43.1904 67.6934 43.0908 67.5605C42.9912 67.4277 42.8691 67.3271 42.7246 67.2588C42.582 67.1904 42.4199 67.1562 42.2383 67.1562C42.0625 67.1562 41.9033 67.1904 41.7607 67.2588C41.6201 67.3271 41.499 67.4277 41.3975 67.5605C41.2979 67.6934 41.2207 67.8574 41.166 68.0527C41.1113 68.248 41.084 68.4727 41.084 68.7266V69.002C41.084 69.2578 41.1113 69.4844 41.166 69.6816C41.2207 69.877 41.2988 70.042 41.4004 70.1768C41.5039 70.3096 41.626 70.4102 41.7666 70.4785C41.9092 70.5469 42.0684 70.5811 42.2441 70.5811C42.4277 70.5811 42.5908 70.5469 42.7334 70.4785C42.876 70.4102 42.9961 70.3096 43.0938 70.1768C43.1934 70.042 43.2686 69.877 43.3193 69.6816C43.3701 69.4844 43.3955 69.2578 43.3955 69.002ZM44.8018 66.7344H46.2139C46.5342 66.7344 46.8047 66.7832 47.0254 66.8809C47.248 66.9785 47.417 67.123 47.5322 67.3145C47.6494 67.5039 47.708 67.7373 47.708 68.0146C47.708 68.21 47.668 68.3887 47.5879 68.5508C47.5098 68.7109 47.3965 68.8477 47.248 68.9609C47.1016 69.0723 46.9258 69.1553 46.7207 69.21L46.5625 69.2715H45.2354L45.2295 68.8115H46.2314C46.4346 68.8115 46.6035 68.7764 46.7383 68.7061C46.873 68.6338 46.9746 68.5371 47.043 68.416C47.1113 68.2949 47.1455 68.1611 47.1455 68.0146C47.1455 67.8506 47.1133 67.707 47.0488 67.584C46.9844 67.4609 46.8828 67.3662 46.7441 67.2998C46.6074 67.2314 46.4307 67.1973 46.2139 67.1973H45.3672V71H44.8018V66.7344ZM47.2949 71L46.2578 69.0664L46.8467 69.0635L47.8984 70.9648V71H47.2949ZM51.209 70.54V71H48.9502V70.54H51.209ZM49.0645 66.7344V71H48.499V66.7344H49.0645ZM50.9102 68.5684V69.0283H48.9502V68.5684H50.9102ZM51.1797 66.7344V67.1973H48.9502V66.7344H51.1797Z" fill="white"/>
<path d="M75.3984 63.687H70.894L70.8696 61.7949H74.959C75.6344 61.7949 76.2244 61.681 76.729 61.4531C77.2336 61.2253 77.6242 60.8997 77.9009 60.4766C78.1857 60.0452 78.3281 59.5326 78.3281 58.9385C78.3281 58.2874 78.202 57.7585 77.9497 57.3516C77.7056 56.9365 77.3271 56.6354 76.8145 56.4482C76.3099 56.2529 75.667 56.1553 74.8857 56.1553H71.4189V72H69.063V54.2266H74.8857C75.7972 54.2266 76.611 54.3201 77.3271 54.5073C78.0433 54.6864 78.6496 54.9712 79.146 55.3618C79.6506 55.7443 80.033 56.2326 80.2935 56.8267C80.5539 57.4207 80.6841 58.1328 80.6841 58.9629C80.6841 59.6953 80.4969 60.3586 80.1226 60.9526C79.7482 61.5386 79.2274 62.0187 78.5601 62.3931C77.9009 62.7674 77.1278 63.0075 76.2407 63.1133L75.3984 63.687ZM75.2886 72H69.9663L71.2969 70.0835H75.2886C76.0373 70.0835 76.672 69.9533 77.1929 69.6929C77.7218 69.4325 78.1247 69.0662 78.4014 68.5942C78.6781 68.1141 78.8164 67.5485 78.8164 66.8975C78.8164 66.2383 78.6984 65.6686 78.4624 65.1885C78.2264 64.7083 77.8561 64.3381 77.3516 64.0776C76.847 63.8172 76.196 63.687 75.3984 63.687H72.0415L72.0659 61.7949H76.6558L77.1562 62.4785C78.0107 62.5518 78.735 62.7959 79.3291 63.2109C79.9232 63.6178 80.3748 64.1387 80.6841 64.7734C81.0015 65.4082 81.1602 66.1081 81.1602 66.873C81.1602 67.9798 80.916 68.9157 80.4277 69.6807C79.9476 70.4375 79.2681 71.0153 78.3892 71.4141C77.5103 71.8047 76.4767 72 75.2886 72ZM89.7783 72.2441C88.8587 72.2441 88.0246 72.0895 87.2759 71.7803C86.5353 71.4629 85.8965 71.0194 85.3594 70.4497C84.8304 69.88 84.4235 69.2046 84.1387 68.4233C83.8538 67.6421 83.7114 66.7876 83.7114 65.8599V65.3472C83.7114 64.2729 83.8701 63.3167 84.1875 62.4785C84.5049 61.6322 84.9362 60.916 85.4814 60.3301C86.0267 59.7441 86.6452 59.3006 87.3369 58.9995C88.0286 58.6984 88.7448 58.5479 89.4854 58.5479C90.4294 58.5479 91.2432 58.7106 91.9268 59.0361C92.6185 59.3617 93.1841 59.8174 93.6235 60.4033C94.063 60.9811 94.3885 61.6647 94.6001 62.4541C94.8117 63.2354 94.9175 64.0898 94.9175 65.0176V66.0308H85.0542V64.1875H92.6592V64.0166C92.6266 63.4307 92.5046 62.861 92.293 62.3076C92.0895 61.7542 91.764 61.2985 91.3164 60.9404C90.8688 60.5824 90.2585 60.4033 89.4854 60.4033C88.9727 60.4033 88.5007 60.5132 88.0693 60.7329C87.638 60.9445 87.2677 61.2619 86.9585 61.6851C86.6493 62.1082 86.4092 62.625 86.2383 63.2354C86.0674 63.8457 85.9819 64.5496 85.9819 65.3472V65.8599C85.9819 66.4865 86.0674 67.0765 86.2383 67.6299C86.4173 68.1751 86.6737 68.6553 87.0073 69.0703C87.3491 69.4854 87.7601 69.8109 88.2402 70.0469C88.7285 70.2829 89.2819 70.4009 89.9004 70.4009C90.6979 70.4009 91.3734 70.2381 91.9268 69.9126C92.4801 69.5871 92.9644 69.1517 93.3794 68.6064L94.7466 69.6929C94.4618 70.1242 94.0996 70.5352 93.6602 70.9258C93.2207 71.3164 92.6795 71.6338 92.0366 71.8779C91.4019 72.1221 90.6491 72.2441 89.7783 72.2441ZM111.446 68.4966C111.446 68.1711 111.373 67.87 111.226 67.5933C111.088 67.3084 110.799 67.0521 110.359 66.8242C109.928 66.5882 109.277 66.3848 108.406 66.2139C107.674 66.0592 107.011 65.8761 106.417 65.6646C105.831 65.453 105.33 65.1966 104.915 64.8955C104.508 64.5944 104.195 64.2404 103.975 63.8335C103.755 63.4266 103.646 62.9505 103.646 62.4053C103.646 61.8844 103.759 61.3921 103.987 60.9282C104.223 60.4644 104.553 60.0534 104.976 59.6953C105.407 59.3372 105.924 59.0565 106.526 58.853C107.129 58.6496 107.8 58.5479 108.541 58.5479C109.598 58.5479 110.502 58.735 111.25 59.1094C111.999 59.4837 112.573 59.9842 112.972 60.6108C113.37 61.2293 113.57 61.917 113.57 62.6738H111.312C111.312 62.3076 111.202 61.9536 110.982 61.6118C110.77 61.2619 110.457 60.973 110.042 60.7451C109.635 60.5173 109.135 60.4033 108.541 60.4033C107.914 60.4033 107.405 60.501 107.015 60.6963C106.632 60.8835 106.351 61.1235 106.172 61.4165C106.001 61.7095 105.916 62.0187 105.916 62.3442C105.916 62.5884 105.957 62.8081 106.038 63.0034C106.128 63.1906 106.282 63.3656 106.502 63.5283C106.722 63.6829 107.031 63.8294 107.43 63.9678C107.828 64.1061 108.337 64.2445 108.956 64.3828C110.038 64.627 110.929 64.9199 111.629 65.2617C112.329 65.6035 112.85 66.0226 113.191 66.519C113.533 67.0155 113.704 67.6177 113.704 68.3257C113.704 68.9035 113.582 69.4325 113.338 69.9126C113.102 70.3927 112.756 70.8078 112.3 71.1577C111.853 71.4995 111.316 71.7681 110.689 71.9634C110.07 72.1506 109.375 72.2441 108.602 72.2441C107.438 72.2441 106.453 72.0366 105.647 71.6216C104.842 71.2065 104.231 70.6694 103.816 70.0103C103.401 69.3511 103.194 68.6553 103.194 67.9229H105.464C105.497 68.5413 105.676 69.0337 106.001 69.3999C106.327 69.758 106.726 70.0143 107.198 70.1689C107.67 70.3154 108.138 70.3887 108.602 70.3887C109.22 70.3887 109.737 70.3073 110.152 70.1445C110.575 69.9818 110.896 69.758 111.116 69.4731C111.336 69.1883 111.446 68.8628 111.446 68.4966ZM124.751 68.9482V58.792H127.022V72H124.861L124.751 68.9482ZM125.179 66.165L126.119 66.1406C126.119 67.0195 126.025 67.8333 125.838 68.582C125.659 69.3226 125.366 69.9655 124.959 70.5107C124.552 71.056 124.019 71.4832 123.36 71.7925C122.701 72.0936 121.899 72.2441 120.955 72.2441C120.312 72.2441 119.722 72.1506 119.185 71.9634C118.656 71.7762 118.2 71.4873 117.818 71.0967C117.435 70.7061 117.138 70.1974 116.927 69.5708C116.723 68.9442 116.622 68.1914 116.622 67.3125V58.792H118.88V67.3369C118.88 67.931 118.945 68.4233 119.075 68.814C119.214 69.1965 119.397 69.5016 119.625 69.7295C119.861 69.9492 120.121 70.1038 120.406 70.1934C120.699 70.2829 121 70.3276 121.309 70.3276C122.269 70.3276 123.03 70.1445 123.592 69.7783C124.153 69.404 124.556 68.9035 124.8 68.2769C125.053 67.6421 125.179 66.9382 125.179 66.165ZM132.723 60.8672V72H130.464V58.792H132.662L132.723 60.8672ZM136.849 58.7188L136.836 60.8184C136.649 60.7777 136.47 60.7533 136.299 60.7451C136.137 60.7288 135.949 60.7207 135.738 60.7207C135.217 60.7207 134.757 60.8021 134.358 60.9648C133.96 61.1276 133.622 61.3555 133.345 61.6484C133.069 61.9414 132.849 62.2913 132.686 62.6982C132.531 63.097 132.43 63.5365 132.381 64.0166L131.746 64.3828C131.746 63.5853 131.823 62.8366 131.978 62.1367C132.141 61.4368 132.389 60.8184 132.723 60.2812C133.056 59.736 133.479 59.3128 133.992 59.0117C134.513 58.7025 135.132 58.5479 135.848 58.5479C136.01 58.5479 136.198 58.5682 136.409 58.6089C136.621 58.6414 136.767 58.6781 136.849 58.7188ZM144.173 72.2441C143.253 72.2441 142.419 72.0895 141.67 71.7803C140.93 71.4629 140.291 71.0194 139.754 70.4497C139.225 69.88 138.818 69.2046 138.533 68.4233C138.248 67.6421 138.106 66.7876 138.106 65.8599V65.3472C138.106 64.2729 138.265 63.3167 138.582 62.4785C138.899 61.6322 139.331 60.916 139.876 60.3301C140.421 59.7441 141.04 59.3006 141.731 58.9995C142.423 58.6984 143.139 58.5479 143.88 58.5479C144.824 58.5479 145.638 58.7106 146.321 59.0361C147.013 59.3617 147.579 59.8174 148.018 60.4033C148.458 60.9811 148.783 61.6647 148.995 62.4541C149.206 63.2354 149.312 64.0898 149.312 65.0176V66.0308H139.449V64.1875H147.054V64.0166C147.021 63.4307 146.899 62.861 146.688 62.3076C146.484 61.7542 146.159 61.2985 145.711 60.9404C145.263 60.5824 144.653 60.4033 143.88 60.4033C143.367 60.4033 142.895 60.5132 142.464 60.7329C142.033 60.9445 141.662 61.2619 141.353 61.6851C141.044 62.1082 140.804 62.625 140.633 63.2354C140.462 63.8457 140.376 64.5496 140.376 65.3472V65.8599C140.376 66.4865 140.462 67.0765 140.633 67.6299C140.812 68.1751 141.068 68.6553 141.402 69.0703C141.744 69.4854 142.155 69.8109 142.635 70.0469C143.123 70.2829 143.676 70.4009 144.295 70.4009C145.092 70.4009 145.768 70.2381 146.321 69.9126C146.875 69.5871 147.359 69.1517 147.774 68.6064L149.141 69.6929C148.856 70.1242 148.494 70.5352 148.055 70.9258C147.615 71.3164 147.074 71.6338 146.431 71.8779C145.796 72.1221 145.044 72.2441 144.173 72.2441ZM157.552 65.5425V65.2617C157.552 64.3096 157.69 63.4266 157.967 62.6128C158.243 61.7909 158.642 61.0788 159.163 60.4766C159.684 59.8662 160.315 59.3942 161.055 59.0605C161.796 58.7188 162.626 58.5479 163.545 58.5479C164.473 58.5479 165.307 58.7188 166.048 59.0605C166.797 59.3942 167.431 59.8662 167.952 60.4766C168.481 61.0788 168.884 61.7909 169.161 62.6128C169.437 63.4266 169.576 64.3096 169.576 65.2617V65.5425C169.576 66.4946 169.437 67.3776 169.161 68.1914C168.884 69.0052 168.481 69.7173 167.952 70.3276C167.431 70.9299 166.801 71.4019 166.06 71.7437C165.328 72.0773 164.498 72.2441 163.57 72.2441C162.642 72.2441 161.808 72.0773 161.067 71.7437C160.327 71.4019 159.692 70.9299 159.163 70.3276C158.642 69.7173 158.243 69.0052 157.967 68.1914C157.69 67.3776 157.552 66.4946 157.552 65.5425ZM159.81 65.2617V65.5425C159.81 66.2017 159.887 66.8242 160.042 67.4102C160.197 67.988 160.429 68.5007 160.738 68.9482C161.055 69.3958 161.45 69.7498 161.922 70.0103C162.394 70.2625 162.943 70.3887 163.57 70.3887C164.188 70.3887 164.729 70.2625 165.193 70.0103C165.665 69.7498 166.056 69.3958 166.365 68.9482C166.674 68.5007 166.906 67.988 167.061 67.4102C167.224 66.8242 167.305 66.2017 167.305 65.5425V65.2617C167.305 64.6107 167.224 63.9963 167.061 63.4185C166.906 62.8325 166.67 62.3158 166.353 61.8682C166.044 61.4124 165.653 61.0544 165.181 60.7939C164.717 60.5335 164.172 60.4033 163.545 60.4033C162.927 60.4033 162.382 60.5335 161.91 60.7939C161.446 61.0544 161.055 61.4124 160.738 61.8682C160.429 62.3158 160.197 62.8325 160.042 63.4185C159.887 63.9963 159.81 64.6107 159.81 65.2617ZM175.777 72H173.519V57.4004C173.519 56.4482 173.689 55.6466 174.031 54.9956C174.381 54.3364 174.882 53.84 175.533 53.5063C176.184 53.1646 176.957 52.9937 177.852 52.9937C178.112 52.9937 178.373 53.0099 178.633 53.0425C178.902 53.075 179.162 53.1239 179.415 53.189L179.292 55.0322C179.122 54.9915 178.926 54.9631 178.707 54.9468C178.495 54.9305 178.283 54.9224 178.072 54.9224C177.592 54.9224 177.177 55.02 176.827 55.2153C176.485 55.4025 176.224 55.6792 176.045 56.0454C175.866 56.4116 175.777 56.8633 175.777 57.4004V72ZM178.584 58.792V60.5254H171.431V58.792H178.584ZM191.011 70.6328L194.686 58.792H197.103L191.805 74.0386C191.683 74.3641 191.52 74.714 191.316 75.0884C191.121 75.4709 190.869 75.833 190.56 76.1748C190.25 76.5166 189.876 76.7933 189.437 77.0049C189.005 77.2246 188.488 77.3345 187.886 77.3345C187.707 77.3345 187.479 77.3101 187.203 77.2612C186.926 77.2124 186.731 77.1717 186.617 77.1392L186.604 75.3081C186.67 75.3162 186.771 75.3244 186.91 75.3325C187.056 75.3488 187.158 75.3569 187.215 75.3569C187.728 75.3569 188.163 75.2878 188.521 75.1494C188.879 75.0192 189.18 74.7954 189.424 74.478C189.677 74.1688 189.892 73.7415 190.071 73.1963L191.011 70.6328ZM188.313 58.792L191.744 69.0459L192.33 71.4263L190.706 72.2563L185.848 58.792H188.313ZM198.348 65.5425V65.2617C198.348 64.3096 198.486 63.4266 198.763 62.6128C199.039 61.7909 199.438 61.0788 199.959 60.4766C200.48 59.8662 201.111 59.3942 201.851 59.0605C202.592 58.7188 203.422 58.5479 204.341 58.5479C205.269 58.5479 206.103 58.7188 206.844 59.0605C207.592 59.3942 208.227 59.8662 208.748 60.4766C209.277 61.0788 209.68 61.7909 209.957 62.6128C210.233 63.4266 210.372 64.3096 210.372 65.2617V65.5425C210.372 66.4946 210.233 67.3776 209.957 68.1914C209.68 69.0052 209.277 69.7173 208.748 70.3276C208.227 70.9299 207.597 71.4019 206.856 71.7437C206.124 72.0773 205.293 72.2441 204.366 72.2441C203.438 72.2441 202.604 72.0773 201.863 71.7437C201.123 71.4019 200.488 70.9299 199.959 70.3276C199.438 69.7173 199.039 69.0052 198.763 68.1914C198.486 67.3776 198.348 66.4946 198.348 65.5425ZM200.606 65.2617V65.5425C200.606 66.2017 200.683 66.8242 200.838 67.4102C200.993 67.988 201.224 68.5007 201.534 68.9482C201.851 69.3958 202.246 69.7498 202.718 70.0103C203.19 70.2625 203.739 70.3887 204.366 70.3887C204.984 70.3887 205.525 70.2625 205.989 70.0103C206.461 69.7498 206.852 69.3958 207.161 68.9482C207.47 68.5007 207.702 67.988 207.857 67.4102C208.02 66.8242 208.101 66.2017 208.101 65.5425V65.2617C208.101 64.6107 208.02 63.9963 207.857 63.4185C207.702 62.8325 207.466 62.3158 207.149 61.8682C206.84 61.4124 206.449 61.0544 205.977 60.7939C205.513 60.5335 204.968 60.4033 204.341 60.4033C203.723 60.4033 203.178 60.5335 202.706 60.7939C202.242 61.0544 201.851 61.4124 201.534 61.8682C201.224 62.3158 200.993 62.8325 200.838 63.4185C200.683 63.9963 200.606 64.6107 200.606 65.2617ZM221.285 68.9482V58.792H223.555V72H221.395L221.285 68.9482ZM221.712 66.165L222.652 66.1406C222.652 67.0195 222.558 67.8333 222.371 68.582C222.192 69.3226 221.899 69.9655 221.492 70.5107C221.085 71.056 220.552 71.4832 219.893 71.7925C219.234 72.0936 218.432 72.2441 217.488 72.2441C216.845 72.2441 216.255 72.1506 215.718 71.9634C215.189 71.7762 214.734 71.4873 214.351 71.0967C213.969 70.7061 213.672 70.1974 213.46 69.5708C213.257 68.9442 213.155 68.1914 213.155 67.3125V58.792H215.413V67.3369C215.413 67.931 215.478 68.4233 215.608 68.814C215.747 69.1965 215.93 69.5016 216.158 69.7295C216.394 69.9492 216.654 70.1038 216.939 70.1934C217.232 70.2829 217.533 70.3276 217.842 70.3276C218.803 70.3276 219.563 70.1445 220.125 69.7783C220.687 69.404 221.089 68.9035 221.333 68.2769C221.586 67.6421 221.712 66.9382 221.712 66.165ZM229.256 60.8672V72H226.998V58.792H229.195L229.256 60.8672ZM233.382 58.7188L233.37 60.8184C233.182 60.7777 233.003 60.7533 232.833 60.7451C232.67 60.7288 232.483 60.7207 232.271 60.7207C231.75 60.7207 231.29 60.8021 230.892 60.9648C230.493 61.1276 230.155 61.3555 229.878 61.6484C229.602 61.9414 229.382 62.2913 229.219 62.6982C229.065 63.097 228.963 63.5365 228.914 64.0166L228.279 64.3828C228.279 63.5853 228.357 62.8366 228.511 62.1367C228.674 61.4368 228.922 60.8184 229.256 60.2812C229.59 59.736 230.013 59.3128 230.525 59.0117C231.046 58.7025 231.665 58.5479 232.381 58.5479C232.544 58.5479 232.731 58.5682 232.942 58.6089C233.154 58.6414 233.3 58.6781 233.382 58.7188ZM243.16 68.4966C243.16 68.1711 243.086 67.87 242.94 67.5933C242.802 67.3084 242.513 67.0521 242.073 66.8242C241.642 66.5882 240.991 66.3848 240.12 66.2139C239.388 66.0592 238.724 65.8761 238.13 65.6646C237.544 65.453 237.044 65.1966 236.629 64.8955C236.222 64.5944 235.909 64.2404 235.689 63.8335C235.469 63.4266 235.359 62.9505 235.359 62.4053C235.359 61.8844 235.473 61.3921 235.701 60.9282C235.937 60.4644 236.267 60.0534 236.69 59.6953C237.121 59.3372 237.638 59.0565 238.24 58.853C238.842 58.6496 239.514 58.5479 240.254 58.5479C241.312 58.5479 242.216 58.735 242.964 59.1094C243.713 59.4837 244.287 59.9842 244.686 60.6108C245.084 61.2293 245.284 61.917 245.284 62.6738H243.025C243.025 62.3076 242.916 61.9536 242.696 61.6118C242.484 61.2619 242.171 60.973 241.756 60.7451C241.349 60.5173 240.848 60.4033 240.254 60.4033C239.628 60.4033 239.119 60.501 238.729 60.6963C238.346 60.8835 238.065 61.1235 237.886 61.4165C237.715 61.7095 237.63 62.0187 237.63 62.3442C237.63 62.5884 237.671 62.8081 237.752 63.0034C237.841 63.1906 237.996 63.3656 238.216 63.5283C238.436 63.6829 238.745 63.8294 239.144 63.9678C239.542 64.1061 240.051 64.2445 240.669 64.3828C241.752 64.627 242.643 64.9199 243.343 65.2617C244.043 65.6035 244.563 66.0226 244.905 66.519C245.247 67.0155 245.418 67.6177 245.418 68.3257C245.418 68.9035 245.296 69.4325 245.052 69.9126C244.816 70.3927 244.47 70.8078 244.014 71.1577C243.567 71.4995 243.029 71.7681 242.403 71.9634C241.784 72.1506 241.089 72.2441 240.315 72.2441C239.152 72.2441 238.167 72.0366 237.361 71.6216C236.556 71.2065 235.945 70.6694 235.53 70.0103C235.115 69.3511 234.908 68.6553 234.908 67.9229H237.178C237.211 68.5413 237.39 69.0337 237.715 69.3999C238.041 69.758 238.44 70.0143 238.912 70.1689C239.384 70.3154 239.852 70.3887 240.315 70.3887C240.934 70.3887 241.451 70.3073 241.866 70.1445C242.289 69.9818 242.61 69.758 242.83 69.4731C243.05 69.1883 243.16 68.8628 243.16 68.4966ZM253.865 72.2441C252.946 72.2441 252.111 72.0895 251.363 71.7803C250.622 71.4629 249.983 71.0194 249.446 70.4497C248.917 69.88 248.51 69.2046 248.226 68.4233C247.941 67.6421 247.798 66.7876 247.798 65.8599V65.3472C247.798 64.2729 247.957 63.3167 248.274 62.4785C248.592 61.6322 249.023 60.916 249.568 60.3301C250.114 59.7441 250.732 59.3006 251.424 58.9995C252.116 58.6984 252.832 58.5479 253.572 58.5479C254.516 58.5479 255.33 58.7106 256.014 59.0361C256.705 59.3617 257.271 59.8174 257.71 60.4033C258.15 60.9811 258.475 61.6647 258.687 62.4541C258.899 63.2354 259.004 64.0898 259.004 65.0176V66.0308H249.141V64.1875H256.746V64.0166C256.714 63.4307 256.591 62.861 256.38 62.3076C256.176 61.7542 255.851 61.2985 255.403 60.9404C254.956 60.5824 254.345 60.4033 253.572 60.4033C253.06 60.4033 252.588 60.5132 252.156 60.7329C251.725 60.9445 251.355 61.2619 251.045 61.6851C250.736 62.1082 250.496 62.625 250.325 63.2354C250.154 63.8457 250.069 64.5496 250.069 65.3472V65.8599C250.069 66.4865 250.154 67.0765 250.325 67.6299C250.504 68.1751 250.761 68.6553 251.094 69.0703C251.436 69.4854 251.847 69.8109 252.327 70.0469C252.815 70.2829 253.369 70.4009 253.987 70.4009C254.785 70.4009 255.46 70.2381 256.014 69.9126C256.567 69.5871 257.051 69.1517 257.466 68.6064L258.833 69.6929C258.549 70.1242 258.187 70.5352 257.747 70.9258C257.308 71.3164 256.766 71.6338 256.124 71.8779C255.489 72.1221 254.736 72.2441 253.865 72.2441ZM264.095 53.25V72H261.824V53.25H264.095ZM271.089 72H268.831V57.4004C268.831 56.4482 269.002 55.6466 269.344 54.9956C269.694 54.3364 270.194 53.84 270.845 53.5063C271.496 53.1646 272.269 52.9937 273.165 52.9937C273.425 52.9937 273.685 53.0099 273.946 53.0425C274.214 53.075 274.475 53.1239 274.727 53.189L274.605 55.0322C274.434 54.9915 274.239 54.9631 274.019 54.9468C273.807 54.9305 273.596 54.9224 273.384 54.9224C272.904 54.9224 272.489 55.02 272.139 55.2153C271.797 55.4025 271.537 55.6792 271.358 56.0454C271.179 56.4116 271.089 56.8633 271.089 57.4004V72ZM273.897 58.792V60.5254H266.744V58.792H273.897Z" fill="white"/>
<line x1="5.5" y1="6" x2="5.5" y2="70" stroke="white"/>
<line x1="52.5" y1="36" x2="52.5" y2="71" stroke="white"/>
<line x1="52.5" y1="7" x2="52.5" y2="17" stroke="white"/>
<path d="M54 20.2734V20.6367H51.4102L51 20.6055V20.2734H54ZM52.0742 22.0645H52.0332C51.8796 22.0645 51.737 22.0462 51.6055 22.0098C51.4753 21.9733 51.362 21.9199 51.2656 21.8496C51.1693 21.7793 51.0944 21.6934 51.041 21.5918C50.9876 21.4902 50.9609 21.3737 50.9609 21.2422C50.9609 21.1081 50.9837 20.9902 51.0293 20.8887C51.0762 20.7884 51.1432 20.7038 51.2305 20.6348C51.3177 20.5658 51.4232 20.5104 51.5469 20.4688C51.6706 20.4284 51.8099 20.4004 51.9648 20.3848H52.1445C52.3008 20.4004 52.4408 20.4284 52.5645 20.4688C52.6882 20.5104 52.7936 20.5658 52.8809 20.6348C52.9694 20.7038 53.0365 20.7884 53.082 20.8887C53.1289 20.9889 53.1523 21.1055 53.1523 21.2383C53.1523 21.3711 53.1263 21.4889 53.0742 21.5918C53.0234 21.6947 52.9505 21.7806 52.8555 21.8496C52.7604 21.9199 52.6465 21.9733 52.5137 22.0098C52.3822 22.0462 52.2357 22.0645 52.0742 22.0645ZM52.0332 21.7012H52.0742C52.1797 21.7012 52.2786 21.6914 52.3711 21.6719C52.4648 21.6523 52.5469 21.6211 52.6172 21.5781C52.6888 21.5352 52.7448 21.4785 52.7852 21.4082C52.8268 21.3379 52.8477 21.2513 52.8477 21.1484C52.8477 21.0573 52.832 20.9779 52.8008 20.9102C52.7695 20.8438 52.7272 20.7871 52.6738 20.7402C52.6217 20.6934 52.5618 20.6549 52.4941 20.625C52.4277 20.5964 52.3587 20.5749 52.2871 20.5605H51.8164C51.7253 20.5814 51.6374 20.6152 51.5527 20.6621C51.4694 20.7103 51.401 20.7741 51.3477 20.8535C51.2943 20.9342 51.2676 21.0339 51.2676 21.1523C51.2676 21.25 51.2871 21.3333 51.3262 21.4023C51.3665 21.4727 51.4219 21.5293 51.4922 21.5723C51.5625 21.6165 51.6439 21.6491 51.7363 21.6699C51.8288 21.6908 51.9277 21.7012 52.0332 21.7012ZM51.2188 23.0918L53.1133 23.6797V24.0664L50.6738 23.2188C50.6217 23.1992 50.5658 23.1732 50.5059 23.1406C50.4447 23.1094 50.3867 23.069 50.332 23.0195C50.2773 22.9701 50.2331 22.9102 50.1992 22.8398C50.1641 22.7708 50.1465 22.6882 50.1465 22.5918C50.1465 22.5632 50.1504 22.5267 50.1582 22.4824C50.166 22.4382 50.1725 22.4069 50.1777 22.3887L50.4707 22.3867C50.4694 22.3971 50.4681 22.4134 50.4668 22.4355C50.4642 22.459 50.4629 22.4753 50.4629 22.4844C50.4629 22.5664 50.474 22.6361 50.4961 22.6934C50.5169 22.7507 50.5527 22.7988 50.6035 22.8379C50.653 22.8783 50.7214 22.9128 50.8086 22.9414L51.2188 23.0918ZM53.1133 22.6602L51.4727 23.209L51.0918 23.3027L50.959 23.043L53.1133 22.2656V22.6602ZM53.5918 26.4922L51 25.5508V25.166L53.8438 26.25V26.498L53.5918 26.4922ZM51 27.2812L53.5918 26.3379L53.8438 26.332V26.5801L51 27.668V27.2812ZM52.0527 27.2324H51.7441V25.6348H52.0527V27.2324ZM54 28.3867H51V28.0234H54V28.3867ZM50.9609 29.8438C50.9609 29.6966 50.9857 29.5632 51.0352 29.4434C51.0859 29.3249 51.1569 29.2227 51.248 29.1367C51.3392 29.0521 51.4473 28.987 51.5723 28.9414C51.6973 28.8958 51.834 28.873 51.9824 28.873H52.0645C52.2363 28.873 52.3893 28.8984 52.5234 28.9492C52.6589 29 52.7734 29.069 52.8672 29.1562C52.9609 29.2435 53.0319 29.3424 53.0801 29.4531C53.1283 29.5638 53.1523 29.6784 53.1523 29.7969C53.1523 29.9479 53.1263 30.0781 53.0742 30.1875C53.0221 30.2982 52.9492 30.3887 52.8555 30.459C52.763 30.5293 52.6536 30.5814 52.5273 30.6152C52.4023 30.6491 52.2656 30.666 52.1172 30.666H51.9551V29.0879H52.25V30.3047H52.2773C52.3711 30.2995 52.4622 30.2799 52.5508 30.2461C52.6393 30.2135 52.7122 30.1615 52.7695 30.0898C52.8268 30.0182 52.8555 29.9206 52.8555 29.7969C52.8555 29.7148 52.8379 29.6393 52.8027 29.5703C52.7689 29.5013 52.7181 29.4421 52.6504 29.3926C52.5827 29.3431 52.5 29.3047 52.4023 29.2773C52.3047 29.25 52.1921 29.2363 52.0645 29.2363H51.9824C51.8822 29.2363 51.7878 29.25 51.6992 29.2773C51.612 29.306 51.5352 29.347 51.4688 29.4004C51.4023 29.4551 51.3503 29.5208 51.3125 29.5977C51.2747 29.6758 51.2559 29.7643 51.2559 29.8633C51.2559 29.9909 51.2819 30.099 51.334 30.1875C51.3861 30.276 51.4557 30.3535 51.543 30.4199L51.3691 30.6387C51.3001 30.5931 51.2344 30.5352 51.1719 30.4648C51.1094 30.3945 51.0586 30.3079 51.0195 30.2051C50.9805 30.1035 50.9609 29.9831 50.9609 29.8438ZM53.1133 31.332L52.3438 31.7949L53.1133 32.2637V32.6875L52.0703 31.9961L51 32.709V32.291L51.793 31.8027L51 31.3145V30.8945L52.0703 31.6055L53.1133 30.916V31.332Z" fill="white"/>
</svg>
